<?xml version="1.0" standalone="no"?>
<!DOCTYPE svg PUBLIC "-//W3C//DTD SVG 20010904//EN"
 "http://www.w3.org/TR/2001/REC-SVG-20010904/DTD/svg10.dtd">
<svg version="1.0" xmlns="http://www.w3.org/2000/svg"
 width="1024.000000pt" height="1024.000000pt" viewBox="0 0 1024.000000 1024.000000"
 preserveAspectRatio="xMidYMid meet">

<g transform="translate(0.000000,1024.000000) scale(0.100000,-0.100000)"
fill="#000000" stroke="none">
<path d="M1110 6120 l0 -1740 465 0 465 0 0 997 c0 854 2 995 14 983 8 -8 206
-309 441 -667 235 -359 432 -653 438 -653 7 0 208 300 447 666 239 366 438
668 442 670 4 3 8 -445 8 -995 l0 -1001 544 0 544 0 -64 193 c-34 105 -173
525 -309 932 -135 407 -336 1012 -446 1345 -307 927 -330 993 -344 978 -7 -7
-68 -103 -135 -213 -137 -222 -221 -358 -395 -640 -65 -104 -154 -250 -199
-322 -94 -154 -73 -156 -179 17 -35 58 -171 278 -302 490 -131 212 -269 437
-308 500 -39 63 -83 134 -99 158 l-29 42 -499 0 -500 0 0 -1740z"/>
<path d="M2132 3720 c-100 -26 -181 -72 -262 -147 -85 -79 -135 -154 -177
-264 -108 -287 -22 -627 201 -796 74 -56 164 -98 254 -119 87 -20 257 -20 347
1 86 19 256 101 313 150 l42 37 0 259 0 259 -275 0 -276 0 3 -62 3 -63 203 -3
202 -2 0 -165 0 -164 -33 -25 c-79 -60 -253 -116 -359 -116 -126 1 -260 55
-354 142 -109 103 -164 242 -164 420 0 326 241 567 545 544 129 -9 235 -48
320 -116 l40 -32 42 49 c24 26 43 53 43 59 0 16 -109 90 -173 119 -128 56
-344 72 -485 35z"/>
<path d="M5020 3725 c-35 -8 -102 -33 -149 -55 -68 -33 -100 -57 -166 -123
-91 -92 -131 -154 -171 -272 -25 -71 -28 -94 -28 -215 -1 -123 2 -143 28 -224
72 -218 249 -385 471 -441 61 -16 238 -21 291 -10 220 49 380 169 474 355 191
379 12 842 -374 966 -102 33 -276 42 -376 19z m261 -129 c188 -40 335 -182
395 -382 28 -92 24 -237 -10 -341 -68 -211 -241 -347 -457 -360 -100 -6 -166
6 -254 48 -335 159 -410 634 -142 902 121 120 294 169 468 133z"/>
<path d="M3190 3060 l0 -660 70 0 70 0 0 255 0 255 194 0 195 0 190 -255 191
-255 85 0 c47 0 85 2 85 5 0 3 -88 123 -196 266 -108 143 -195 261 -193 263 2
2 34 13 70 25 118 39 208 113 253 210 17 38 21 65 21 156 0 95 -3 116 -23 157
-36 73 -105 143 -175 178 -108 53 -168 60 -519 60 l-318 0 0 -660z m723 501
c119 -47 172 -120 172 -241 0 -85 -20 -133 -77 -186 -85 -80 -162 -96 -453
-92 l-220 3 -3 260 c-1 143 0 266 3 273 4 12 50 13 263 10 238 -4 261 -6 315
-27z"/>
<path d="M6150 3288 c0 -479 4 -521 62 -638 19 -40 55 -88 92 -125 101 -100
223 -145 395 -145 167 0 299 49 396 145 60 61 96 125 126 225 21 72 23 94 27
523 l4 447 -76 0 -76 0 0 -424 c0 -241 -4 -446 -10 -477 -29 -157 -134 -265
-288 -298 -195 -41 -379 35 -458 191 -47 92 -53 166 -54 606 l0 402 -70 0 -70
0 0 -432z"/>
<path d="M7610 3060 l0 -660 70 0 70 0 2 233 3 232 240 6 c213 5 247 8 299 27
211 78 322 248 296 454 -22 184 -148 311 -347 353 -50 11 -143 15 -350 15
l-283 0 0 -660z m564 520 c183 -27 285 -138 273 -301 -8 -127 -84 -217 -216
-259 -55 -17 -91 -20 -272 -20 l-209 0 0 288 c0 159 3 292 7 295 10 11 340 8
417 -3z"/>
</g>
</svg>
